# xmcd
#
# Track frame offsets:
#	180
#	32601
#	81962
#	105412
#	131578
#	167883
#	209560
#	220866
#	230403
#	240691
#	252829
#	261747
#	275674
#	286102
#	297452
#	309191
#
# Disc length: 4251 seconds
#
# Revision: 0
# Processed by: cddbd v1.4PL0 Copyright (c) Steve Scherf et al.
# Submitted via: dBpowerAMP V4.0
#
DISCID=f2109910
DTITLE=Canned Heat - Live at Topanga Corral and Vintage
DYEAR=1900
DGENRE=Blues
TTITLE0=Bullfrog blues
TTITLE1=Sweet sixteen
TTITLE2=I'd rather be the devil
TTITLE3=Dust my broom
TTITLE4=Wish you would
TTITLE5=When things go wrong
TTITLE6=Spoonful
TTITLE7=Big road blues
TTITLE8=Rollin' and tumblin'
TTITLE9=Got my mojo working
TTITLE10=Pretty thing
TTITLE11=Louise
TTITLE12=Dimples
TTITLE13=Can't hold on much longer
TTITLE14=Straight ahead
TTITLE15=Rollin' and tumblin' (with harmonica)
EXTD=This album is dedicated in loving memory to:\nAlan Wilson\nBob Hite\nHenry Vestine
EXTT0=
EXTT1=
EXTT2=
EXTT3=
EXTT4=
EXTT5=
EXTT6=
EXTT7=
EXTT8=
EXTT9=
EXTT10=
EXTT11=
EXTT12=
EXTT13=
EXTT14=
EXTT15=
PLAYORDER=
